PathFileType	4	(X/Y/Z)	 s06c0102.trc
DataRate	CameraRate	NumFrames	NumMarkers	Units	OrigDataRate	OrigDataStartFrame	OrigNumFrames
200	200	6	48	mm	200	1001	2000
Frame#	Time	racr			lacr			c7			jug			rlel			rdr			llel			ldr			s2			lic			ric			lasi			rasi			rpsi			lpsi			rgt			lgt			rth1			rth2			rth3			rth4			rlfc			rmfc			rsh1			rsh2			rsh3			rsh4			rlmal			rcal			rtoe			rmt5			lth1			lth2			lth4			lth3			llfc			lmfc			llmal			lcal			lmt5			lsh1			lsh2			lsh3			lsh4			ltoe			SBIKE			LBIKE			RBIKE			
		X1	Y1	Z1	X2	Y2	Z2	X3	Y3	Z3	X4	Y4	Z4	X5	Y5	Z5	X6	Y6	Z6	X7	Y7	Z7	X8	Y8	Z8	X9	Y9	Z9	X10	Y10	Z10	X11	Y11	Z11	X12	Y12	Z12	X13	Y13	Z13	X14	Y14	Z14	X15	Y15	Z15	X16	Y16	Z16	X17	Y17	Z17	X18	Y18	Z18	X19	Y19	Z19	X20	Y20	Z20	X21	Y21	Z21	X22	Y22	Z22	X23	Y23	Z23	X24	Y24	Z24	X25	Y25	Z25	X26	Y26	Z26	X27	Y27	Z27	X28	Y28	Z28	X29	Y29	Z29	X30	Y30	Z30	X31	Y31	Z31	X32	Y32	Z32	X33	Y33	Z33	X34	Y34	Z34	X35	Y35	Z35	X36	Y36	Z36	X37	Y37	Z37	X38	Y38	Z38	X39	Y39	Z39	X40	Y40	Z40	X41	Y41	Z41	X42	Y42	Z42	X43	Y43	Z43	X44	Y44	Z44	X45	Y45	Z45	X46	Y46	Z46	X47	Y47	Z47	X48	Y48	Z48	
1001	5.0050	518.794788	1285.183453	-82.109747	525.039646	1259.516317	-376.795513	521.159452	1342.619115	-236.938703	485.227548	1178.802523	-224.425593	527.400884	1045.437672	33.902649	720.159131	920.932775	-44.996210	486.893231	1008.772760	-463.490145	701.146698	934.552343	-399.896575	-23.939140	1154.593501	-210.978358	131.099292	1133.189678	-390.549073	125.236062	1133.066383	-55.701092	152.320563	1085.805040	-349.922067	149.757568	1101.510200	-76.008573	6.975097	1197.017285	-187.878776	1.203095	1190.458427	-248.891486	84.887379	1038.768607	-28.391723	114.512508	1100.689035	-406.617299	144.679719	914.163020	-6.553425	193.641547	837.595020	-7.941553	198.288200	751.583343	-17.608579	227.265997	851.065311	-18.789623	218.799865	646.554761	-29.004603	223.229260	620.891107	-143.109832	204.715837	525.616146	-6.918291	221.091747	441.234113	-25.059920	194.622424	358.702616	-32.174091	247.355245	443.862238	-54.875709	183.283703	276.569139	-41.110069	121.541455	280.687793	-88.748702	346.364679	118.922776	-98.263272	254.511833	150.126025	-25.155353	191.782637	1031.790926	-422.315621	278.815723	1025.213254	-417.340683	290.512876	1056.886448	-399.984402	352.596281	974.650161	-418.472268	432.960569	896.665872	-386.549259	432.100576	884.083095	-267.076887	176.226168	630.205647	-369.618315	100.665422	642.442023	-321.617641	229.385562	497.056423	-398.586006	373.260670	811.243031	-403.124888	328.534882	739.369039	-381.321642	252.535861	693.657703	-380.358614	349.115532	725.286480	-351.584139	303.083543	448.476754	-342.938988	-203.024247	869.291440	-206.701008	-49.257285	84.360823	-413.806592	-48.779038	80.482915	-16.331251	
1002	5.0100	519.822910	1283.670844	-82.370200	525.113164	1257.705107	-376.520929	522.254933	1341.710301	-237.684695	484.868240	1178.110961	-225.315799	528.170108	1044.427544	34.092359	720.463830	920.546609	-45.262005	486.167175	1007.044528	-463.124973	701.231760	934.453995	-399.807402	-23.872043	1155.574067	-210.935487	129.912513	1134.167871	-389.840112	125.389966	1131.563790	-55.293308	150.145274	1085.667735	-349.915035	149.516290	1099.528385	-76.379762	7.054528	1198.007575	-186.462712	1.220231	1191.883366	-247.570386	84.500661	1038.546601	-28.063638	113.446330	1104.302944	-404.793551	143.887346	913.591017	-6.905496	192.865474	837.076369	-8.919881	197.467501	750.947050	-18.774220	226.909731	850.278563	-19.437317	217.316252	646.154750	-30.427584	221.785438	620.534925	-144.267221	201.287351	524.967904	-8.159982	215.420739	440.242702	-26.531827	186.814930	358.378052	-33.389298	241.730829	442.236435	-56.280385	173.610990	276.528356	-42.195389	111.801738	280.733961	-89.861826	335.244318	117.254537	-97.908331	243.474773	149.664253	-25.286191	190.800104	1036.375964	-421.345789	277.796159	1030.053011	-415.826207	289.257477	1061.617410	-397.963546	351.803821	979.711230	-416.584075	433.263235	902.398770	-384.770097	431.765181	889.764561	-264.942536	181.305483	630.170146	-370.056513	104.879100	639.792744	-322.278446	239.117787	499.284492	-398.930964	375.006070	815.919369	-401.820855	331.765695	743.090134	-380.647036	256.625739	695.671788	-380.340844	352.551199	729.093049	-351.129699	314.423380	453.456869	-343.036150	-202.946320	869.325486	-206.968691	-49.237907	84.336482	-413.870319	-48.741778	80.521001	-16.381590	
1003	5.0150	520.432550	1282.407974	-82.497004	525.686806	1255.770289	-375.103896	522.992840	1340.828500	-238.411510	485.119687	1177.244638	-226.020707	528.945466	1043.686988	34.500665	720.748656	920.182436	-45.333112	485.596959	1005.241214	-462.448101	701.294054	934.313098	-399.575364	-24.267454	1156.843246	-209.745684	129.141187	1135.054087	-388.957479	125.702920	1131.685022	-54.224958	147.962720	1085.187050	-349.913133	150.056199	1099.559165	-75.949256	7.052914	1198.751885	-185.077944	1.099168	1193.056526	-246.248687	84.119590	1038.043692	-27.651062	112.469720	1107.539646	-403.069003	143.849153	912.973826	-7.288842	192.729591	836.544931	-9.925880	197.413461	750.534064	-19.582364	226.913920	849.791493	-20.358938	217.065819	645.651915	-31.949106	219.950995	620.359734	-145.390950	198.800374	524.483168	-9.427674	210.205183	439.450500	-28.120250	179.192011	358.471532	-34.673060	236.303460	440.544380	-58.080712	163.604153	276.863343	-44.008889	102.026187	281.708680	-91.454316	324.046357	116.259810	-97.240027	231.977056	149.799711	-25.651626	189.780590	1040.356920	-420.054614	276.754669	1034.136295	-414.341289	288.032883	1065.552301	-396.038841	351.010617	984.149004	-415.471253	432.488697	906.754530	-384.281912	431.751322	894.218471	-263.034593	186.226524	629.226778	-370.492457	108.986089	636.028595	-322.985882	248.803925	500.744564	-399.007111	376.361486	819.803471	-400.458974	334.551093	745.721316	-379.926834	260.475492	696.793839	-380.330845	355.542156	732.202311	-350.553863	325.596226	457.867005	-343.315567	-202.860213	869.371187	-207.266962	-49.212333	84.305750	-413.923148	-48.723516	80.573211	-16.464107	
1004	5.0200	521.016903	1281.328727	-82.103354	525.574001	1254.156772	-375.303048	523.579686	1340.107763	-238.856567	484.707441	1176.674730	-226.270236	529.609599	1042.944711	34.762385	721.034680	919.940125	-45.308641	485.315370	1003.605374	-461.954554	701.258016	934.198329	-399.222380	-24.711722	1157.813357	-208.748404	128.433654	1135.837769	-388.033082	125.915368	1131.963085	-53.032586	145.612827	1084.533774	-349.975825	150.662166	1099.859409	-75.365945	6.929247	1199.252816	-183.760199	0.920680	1194.139566	-244.990602	83.766007	1037.186280	-27.182377	111.586788	1110.421932	-401.588019	143.935237	912.158387	-8.035755	193.480628	836.134897	-10.971005	199.035333	750.240338	-20.269481	227.545095	849.638231	-21.450960	218.001818	645.103135	-33.440537	219.284590	620.182494	-146.898022	197.258411	524.250838	-10.740202	205.726131	439.029370	-29.740007	172.039839	359.001992	-36.006296	231.496363	439.412023	-60.117935	154.224361	278.403933	-45.017515	92.483339	283.314582	-92.873028	312.979250	115.816439	-96.813772	220.860515	150.716659	-25.851442	188.744010	1043.644609	-418.875160	275.688476	1037.427011	-412.746464	286.852357	1068.680496	-394.160658	349.972898	987.378427	-414.087441	431.148946	910.504616	-383.615163	431.556124	898.201921	-261.100044	190.961125	627.180200	-371.056622	112.899177	631.167056	-323.718136	258.393326	501.501331	-399.512946	377.353651	822.541757	-399.172700	337.015035	747.166252	-379.550051	264.041602	696.914465	-380.478954	358.347421	733.910466	-350.171554	336.595156	461.958055	-343.626303	-202.852388	869.357278	-207.525639	-49.240770	84.277171	-413.977701	-48.784116	80.703895	-16.505823	
1005	5.0250	521.574126	1280.333752	-81.485140	525.228984	1252.666868	-375.533807	523.804960	1339.459334	-239.284719	484.453089	1176.067344	-226.373742	530.227816	1042.379810	35.117890	721.177796	919.821748	-45.222958	485.096721	1002.194569	-461.811903	701.115685	934.148387	-399.103182	-25.295152	1158.519872	-207.685920	125.945388	1136.281901	-385.610562	125.767752	1130.930989	-52.252733	141.104550	1083.501767	-348.589818	150.535309	1098.662020	-75.327829	6.393566	1199.599008	-182.361657	0.161327	1194.998717	-243.572486	83.362760	1036.080825	-26.702826	110.741489	1112.546237	-400.279052	145.408360	911.462297	-7.703876	195.065845	835.929688	-12.006668	200.720683	749.402925	-21.896137	228.068379	849.247237	-22.935847	219.794753	644.506643	-34.963651	219.201767	619.940629	-148.448075	196.761463	524.395540	-12.171671	202.114508	439.131162	-31.554289	165.871631	360.168875	-37.337057	227.181600	438.562509	-62.527858	145.649657	280.332949	-46.215703	83.725887	286.037314	-93.660044	302.039561	115.540262	-96.746026	210.440067	152.080657	-26.271422	187.670700	1046.159047	-417.969315	274.501095	1039.715453	-411.025806	285.630973	1070.791486	-392.248348	348.788953	989.553056	-412.601374	430.113968	913.325891	-382.268871	431.266024	900.808415	-259.486247	195.456014	624.014510	-371.606164	116.662177	625.070490	-324.517818	267.427669	501.474621	-399.730955	378.019979	823.929094	-398.079063	339.240995	747.532973	-379.297658	267.167737	695.978384	-380.681562	360.738829	734.575381	-349.934296	347.255129	465.779027	-344.643725	-202.848758	869.349134	-207.707038	-49.244932	84.252359	-414.036390	-48.776945	80.741892	-16.541216	
1006	5.0300	521.896650	1279.592708	-81.074233	524.791714	1251.461670	-375.822168	523.611975	1338.922296	-239.391653	484.336903	1175.434298	-226.205404	530.648187	1041.975657	35.656239	721.116669	919.780258	-45.099286	485.077224	1001.092360	-461.943278	700.935910	934.172233	-399.154711	-25.910049	1159.019862	-206.619003	126.989844	1136.988419	-385.858077	125.449005	1129.984935	-51.517601	141.219381	1083.324605	-349.600023	150.405986	1097.651489	-75.284030	5.993473	1199.647638	-181.157539	-0.516704	1195.606913	-242.225117	82.997309	1034.606926	-26.288619	109.855674	1114.230792	-399.063394	145.787393	910.627887	-8.764194	196.989428	835.804337	-13.259988	203.670994	750.081528	-23.144807	231.128831	850.134968	-23.561972	222.372049	643.945943	-36.562667	219.476752	620.084239	-149.889872	197.100037	525.023697	-13.683448	199.610311	439.672689	-33.295014	161.079523	361.562938	-38.629878	223.690424	438.578062	-65.308473	138.277364	283.010721	-47.086525	75.980007	289.439051	-94.415415	291.466804	115.494983	-96.733034	200.504424	153.772327	-26.595527	186.503677	1047.897933	-417.097888	273.251263	1041.090970	-409.569189	284.286628	1071.926101	-390.470522	347.357147	990.789247	-411.228689	431.564683	914.696170	-378.070439	430.709592	902.075942	-257.991893	199.552740	619.871483	-372.250382	120.183069	617.955896	-325.305098	276.296315	500.801716	-400.257180	378.341686	823.970071	-397.341828	340.973360	746.701710	-379.139644	269.929895	693.840341	-380.892388	362.631234	734.145141	-349.759708	357.489249	468.284322	-344.195872	-202.879610	869.335726	-207.827649	-49.267703	84.253163	-414.064052	-48.810094	80.731479	-16.600334	
